<?xml version="1.0" standalone="no"?>
<!DOCTYPE svg PUBLIC "-//W3C//DTD SVG 20010904//EN"
 "http://www.w3.org/TR/2001/REC-SVG-20010904/DTD/svg10.dtd">
<svg version="1.0" xmlns="http://www.w3.org/2000/svg"
 width="512.000000pt" height="512.000000pt" viewBox="0 0 512.000000 512.000000"
 preserveAspectRatio="xMidYMid meet">

<g transform="translate(0.000000,512.000000) scale(0.100000,-0.100000)"
fill="#000000" stroke="none">
<path d="M3095 5106 c-37 -17 -70 -52 -84 -89 -6 -16 -11 -78 -11 -139 0 -91
4 -119 20 -152 28 -58 73 -86 139 -86 69 0 113 26 141 85 19 40 21 58 18 169
-3 134 -10 154 -70 199 -34 25 -113 32 -153 13z"/>
<path d="M2125 4856 c-65 -28 -105 -107 -91 -176 10 -52 117 -229 151 -250 52
-32 103 -35 154 -8 58 30 83 65 89 126 4 46 0 59 -51 154 -30 57 -66 113 -79
125 -46 43 -115 54 -173 29z"/>
<path d="M4065 4857 c-41 -19 -59 -42 -118 -144 -84 -148 -74 -236 33 -291 34
-18 54 -22 85 -17 68 10 97 37 160 147 54 93 60 109 60 160 0 61 -17 94 -67
131 -33 25 -113 32 -153 14z"/>
<path d="M2946 4455 c-241 -39 -460 -128 -650 -263 -111 -79 -279 -249 -354
-359 -59 -86 -150 -258 -167 -313 -12 -41 -25 -50 -72 -50 -65 0 -228 -35
-330 -71 -310 -110 -572 -340 -726 -638 -101 -195 -147 -387 -147 -612 l0
-127 -67 -43 c-167 -108 -318 -307 -383 -504 -59 -179 -66 -475 -17 -666 87
-336 337 -613 657 -730 186 -68 50 -63 1815 -66 1081 -3 1626 0 1680 7 256 34
443 126 625 310 111 112 177 209 229 337 115 281 104 607 -29 890 -110 235
-318 434 -554 530 -45 18 -80 37 -79 43 2 5 18 33 37 62 88 138 165 332 203
508 26 123 26 449 -1 575 -61 292 -201 551 -411 761 -210 209 -454 341 -750
404 -132 28 -383 35 -509 15z m442 -329 c307 -66 567 -241 738 -497 124 -186
182 -365 191 -590 9 -216 -25 -386 -113 -566 -38 -77 -146 -243 -159 -243 -2
0 -19 30 -39 66 -122 222 -314 384 -548 464 -122 41 -218 54 -366 48 l-128 -6
-24 42 c-76 134 -248 314 -387 406 -104 68 -238 132 -348 165 -49 15 -96 29
-103 31 -33 10 116 240 232 357 177 178 427 304 671 336 94 13 293 6 383 -13z
m-1493 -976 c362 -32 656 -233 821 -561 67 -135 116 -157 258 -120 230 61 460
-3 632 -174 91 -90 148 -191 182 -322 24 -91 41 -117 95 -144 39 -21 47 -21
128 -10 114 15 171 14 248 -4 134 -32 296 -143 384 -263 51 -68 103 -177 129
-268 33 -115 32 -308 -1 -414 -66 -212 -196 -367 -386 -461 -164 -80 -8 -74
-1790 -77 -1724 -3 -1667 -4 -1805 51 -159 65 -305 193 -377 332 -67 129 -85
200 -90 356 -7 169 11 268 69 389 57 118 176 238 298 299 101 51 112 59 135
112 16 35 17 48 7 117 -26 168 -9 354 45 505 125 353 459 618 828 657 38 4 72
8 75 9 3 0 55 -4 115 -9z"/>
<path d="M1390 4151 c-52 -27 -82 -84 -77 -147 5 -73 33 -105 150 -174 88 -52
108 -60 152 -60 95 0 162 74 153 170 -7 69 -37 103 -151 170 -113 67 -162 76
-227 41z"/>
<path d="M4703 4110 c-116 -70 -144 -102 -151 -170 -9 -96 58 -170 153 -170
44 0 64 8 152 60 114 67 144 101 151 170 9 95 -49 161 -147 168 -54 3 -60 1
-158 -58z"/>
</g>
</svg>
