<?xml version="1.0" standalone="no"?>
<!DOCTYPE svg PUBLIC "-//W3C//DTD SVG 20010904//EN"
 "http://www.w3.org/TR/2001/REC-SVG-20010904/DTD/svg10.dtd">
<svg version="1.0" xmlns="http://www.w3.org/2000/svg"
 width="512.000000pt" height="512.000000pt" viewBox="0 0 512.000000 512.000000"
 preserveAspectRatio="xMidYMid meet">

<g transform="translate(0.000000,512.000000) scale(0.100000,-0.100000)"
fill="#000000" stroke="none">
<path d="M2900 4136 c-273 -49 -507 -165 -708 -350 -57 -54 -168 -183 -190
-223 -9 -15 -17 -13 -88 15 -131 53 -204 66 -349 65 -186 -1 -325 -42 -472
-140 -183 -121 -330 -336 -372 -544 -11 -54 -13 -56 -54 -69 -71 -21 -217
-101 -291 -160 -173 -138 -287 -315 -348 -538 -31 -114 -31 -343 0 -464 90
-358 359 -635 712 -730 l85 -23 1735 0 1735 0 83 22 c352 94 624 372 714 730
31 122 31 351 0 465 -80 295 -270 529 -531 654 -56 27 -83 45 -85 59 -3 11 -9
57 -16 102 -24 179 -104 382 -217 552 -32 47 -105 134 -163 192 -184 186 -387
301 -644 365 -85 22 -130 26 -281 30 -122 2 -204 -1 -255 -10z m485 -316 c453
-124 766 -510 792 -975 8 -156 29 -189 142 -226 238 -78 395 -230 468 -454 22
-68 26 -99 27 -205 1 -112 -2 -134 -28 -214 -73 -221 -262 -400 -482 -456 -75
-20 -118 -20 -1743 -20 -1458 0 -1674 2 -1731 16 -225 52 -422 236 -496 460
-25 78 -29 104 -29 209 0 172 38 287 139 422 89 118 233 210 396 252 127 33
151 63 165 201 30 317 334 560 640 512 107 -17 177 -44 264 -104 67 -47 82
-53 128 -53 58 0 95 21 128 74 145 230 223 318 367 414 102 68 190 109 294
138 125 34 161 38 324 35 121 -3 172 -8 235 -26z"/>
</g>
</svg>
