<?xml version="1.0" standalone="no"?>
<!DOCTYPE svg PUBLIC "-//W3C//DTD SVG 20010904//EN"
 "http://www.w3.org/TR/2001/REC-SVG-20010904/DTD/svg10.dtd">
<svg version="1.0" xmlns="http://www.w3.org/2000/svg"
 width="512.000000pt" height="512.000000pt" viewBox="0 0 512.000000 512.000000"
 preserveAspectRatio="xMidYMid meet">

<g transform="translate(0.000000,512.000000) scale(0.100000,-0.100000)"
fill="#000000" stroke="none">
<path d="M2520 4731 c-289 -62 -550 -249 -704 -505 -19 -32 -36 -62 -38 -67
-2 -4 -34 1 -73 12 -317 88 -686 -1 -954 -231 -301 -259 -440 -663 -361 -1051
77 -376 354 -692 715 -816 142 -49 187 -54 468 -60 299 -6 336 -1 385 51 38
39 52 74 52 132 0 85 -49 152 -128 174 -20 5 -142 10 -272 10 -271 0 -333 10
-455 69 -346 167 -505 545 -380 904 33 96 79 169 158 253 215 229 530 295 830
174 64 -25 87 -30 120 -25 102 17 132 45 181 168 48 117 95 188 178 269 150
147 389 221 603 188 201 -30 376 -135 496 -296 51 -69 93 -88 173 -79 33 4
102 8 151 9 79 1 97 -2 145 -26 71 -35 143 -107 178 -178 24 -49 27 -70 32
-187 6 -155 10 -163 116 -235 76 -52 132 -110 172 -177 179 -305 46 -681 -284
-803 -54 -20 -84 -23 -334 -28 -254 -5 -278 -7 -310 -26 -124 -72 -116 -266
14 -325 36 -16 69 -19 268 -19 260 0 347 9 473 51 310 103 531 353 600 682 20
90 19 268 -1 365 -35 175 -135 354 -267 479 -74 70 -74 71 -81 134 -27 241
-150 439 -349 563 -113 70 -209 98 -352 104 l-120 5 -58 53 c-158 146 -362
249 -570 289 -109 21 -309 19 -417 -4z"/>
<path d="M2686 2366 c-30 -12 -134 -109 -434 -408 -220 -220 -400 -407 -408
-425 -40 -91 15 -218 105 -243 21 -6 183 -10 376 -10 l339 0 -316 -317 c-263
-265 -318 -325 -327 -358 -16 -57 -14 -83 10 -132 27 -57 77 -94 133 -100 105
-12 78 -34 595 480 260 260 486 492 502 516 35 54 38 109 10 174 -24 55 -58
83 -122 96 -30 7 -180 11 -372 11 l-321 0 225 228 c202 203 227 232 237 273
34 138 -101 263 -232 215z"/>
<path d="M1586 1085 c-29 -10 -94 -68 -244 -217 -112 -112 -212 -220 -223
-240 -45 -87 -8 -197 83 -244 35 -18 121 -18 156 0 15 8 120 108 234 223 207
208 238 249 238 310 -1 71 -66 153 -138 173 -47 13 -58 12 -106 -5z"/>
<path d="M3416 1086 c-48 -18 -450 -412 -472 -463 -17 -39 -18 -116 -3 -146
17 -32 60 -77 91 -93 35 -18 121 -18 156 0 15 8 122 110 239 228 181 183 213
219 223 256 36 137 -103 266 -234 218z"/>
</g>
</svg>
